# xmcd
#
# Track frame offsets: 
#        150
#        9645
#        19784
#        30070
#        39682
#        51786
#        61059
#        69976
#        80047
#        88527
#        97195
#        103581
#        113601
#        123517
#        132450
#        142546
#        152738
#        161870
#        171943
#        183156
#        194302
#        202878
#        213278
#        224765
#        235157
#        248214
#        257836
#        270548
#        279776
#        290478
#
# Disc length: 4031 seconds
#
# Revision: 0
# Processed by: cddbd v1.5.2PL0 Copyright (c) Steve Scherf et al.
# Submitted via: ExactAudioCopy v0.95b3
#
DISCID=a50fbd1e
DTITLE=Va  - Rockabilly Gold Volume 15
DYEAR=1900
DGENRE=
TTITLE0=Jim Murphy and the Accents - I'm Gone Mama
TTITLE1=Tommy Blake - Kool It Baby
TTITLE2=Nat Couty - Won't You Come Along With Me
TTITLE3=Gene Criss and the Hep Cats - Hep Cat Baby
TTITLE4=Andy Dio and the Hi-Ways - Rough And Bold
TTITLE5=Wally Deane - Cool Cool Daddy
TTITLE6=Huey Long - Elvis Stole My Baby
TTITLE7=Bill Bowen with the Rockets - Don't Shoot Me Baby
TTITLE8=Jerry Cronin and the Flashes - Rock-A-Me Baby
TTITLE9=James Gallagher - Crazy 'Bout You Baby
TTITLE10=Merdel Floyd - Jukebox Mama
TTITLE11=Danny Dill - I'm Hungry For Your Lovin'
TTITLE12=Bill Lawrence - Hey Baby
TTITLE13=Sweety Jones - Never
TTITLE14=Marty Robbins - Mean Mama Blues
TTITLE15=Gene Summers - Gotta Lotta That (alt.)
TTITLE16=The Runabouts - The Prom
TTITLE17=Orangie Ray Hubbard - Sweet Love
TTITLE18=Gary Williams - Walla Walla State Prison
TTITLE19=George Hamilton IV - Everybody's Body
TTITLE20=Ben Hall - Moo Mama
TTITLE21=Bobby Lonero - Little Bit
TTITLE22=Bud Landon and the Rhythm Masters - Running Man
TTITLE23=Electro-Tones - Ghost Train
TTITLE24=Johnny Carroll - Rock 'n' Roll Ruby
TTITLE25=Ray Campi - Tore Up
TTITLE26=Shorty Frog and his Space Cats - Sheddin' Tears Over You
TTITLE27=Bob Luman - Red Hot
TTITLE28=Sleepy La Beef - Little Bit More
TTITLE29=Warren Smith - Red Cadillac And A Black Mustache
EXTD=
EXTT0=
EXTT1=
EXTT2=
EXTT3=
EXTT4=
EXTT5=
EXTT6=
EXTT7=
EXTT8=
EXTT9=
EXTT10=
EXTT11=
EXTT12=
EXTT13=
EXTT14=
EXTT15=
EXTT16=
EXTT17=
EXTT18=
EXTT19=
EXTT20=
EXTT21=
EXTT22=
EXTT23=
EXTT24=
EXTT25=
EXTT26=
EXTT27=
EXTT28=
EXTT29=
PLAYORDER=
